<svg width="1363" height="301" viewBox="0 0 1363 301" fill="none" xmlns="http://www.w3.org/2000/svg">
<rect width="1363" height="301" rx="15" fill="#F0F0F0"/>
<path d="M0 15C0 6.71573 6.71573 0 15 0H37V301H15C6.71573 301 0 294.284 0 286V15Z" fill="#00DD02"/>
<path d="M111.551 113.116L102.017 144H91.8926L106.26 104.898H112.679L111.551 113.116ZM119.446 144L109.886 113.116L108.65 104.898H115.149L129.598 144H119.446ZM119.07 129.417V136.695H99.0093V129.417H119.07ZM148.692 136.937V114.942H157.769V144H149.283L148.692 136.937ZM149.551 131.029L151.915 130.975C151.915 132.927 151.682 134.735 151.216 136.4C150.751 138.047 150.062 139.479 149.148 140.697C148.253 141.914 147.143 142.863 145.818 143.543C144.511 144.206 142.999 144.537 141.28 144.537C139.847 144.537 138.532 144.34 137.332 143.946C136.15 143.535 135.13 142.899 134.271 142.04C133.411 141.162 132.74 140.043 132.256 138.683C131.791 137.304 131.558 135.657 131.558 133.741V114.942H140.608V133.795C140.608 134.439 140.689 134.994 140.85 135.46C141.011 135.925 141.244 136.319 141.548 136.642C141.853 136.946 142.229 137.179 142.676 137.34C143.142 137.483 143.67 137.555 144.261 137.555C145.621 137.555 146.687 137.268 147.457 136.695C148.226 136.122 148.764 135.344 149.068 134.359C149.39 133.374 149.551 132.264 149.551 131.029ZM178.072 114.942V121.227H160.562V114.942H178.072ZM164.241 107.718H173.292V134.52C173.292 135.29 173.381 135.89 173.56 136.319C173.739 136.731 174.043 137.027 174.473 137.206C174.921 137.367 175.512 137.447 176.246 137.447C176.765 137.447 177.194 137.438 177.535 137.42C177.875 137.385 178.197 137.34 178.501 137.286V143.758C177.732 144.009 176.926 144.197 176.084 144.322C175.243 144.465 174.348 144.537 173.399 144.537C171.465 144.537 169.809 144.233 168.431 143.624C167.07 143.015 166.032 142.057 165.315 140.75C164.599 139.444 164.241 137.743 164.241 135.648V107.718ZM179.737 129.767V129.203C179.737 127.072 180.041 125.112 180.65 123.321C181.259 121.513 182.154 119.946 183.335 118.622C184.517 117.297 185.976 116.267 187.713 115.533C189.45 114.781 191.455 114.405 193.729 114.405C196.02 114.405 198.034 114.781 199.771 115.533C201.526 116.267 202.994 117.297 204.175 118.622C205.357 119.946 206.252 121.513 206.861 123.321C207.47 125.112 207.774 127.072 207.774 129.203V129.767C207.774 131.879 207.47 133.84 206.861 135.648C206.252 137.438 205.357 139.005 204.175 140.348C202.994 141.673 201.535 142.702 199.798 143.436C198.061 144.17 196.056 144.537 193.782 144.537C191.508 144.537 189.494 144.17 187.74 143.436C185.985 142.702 184.517 141.673 183.335 140.348C182.154 139.005 181.259 137.438 180.65 135.648C180.041 133.84 179.737 131.879 179.737 129.767ZM188.787 129.203V129.767C188.787 130.859 188.868 131.879 189.029 132.828C189.19 133.777 189.458 134.61 189.834 135.326C190.21 136.024 190.721 136.57 191.365 136.964C192.01 137.358 192.815 137.555 193.782 137.555C194.731 137.555 195.519 137.358 196.146 136.964C196.79 136.57 197.3 136.024 197.676 135.326C198.052 134.61 198.321 133.777 198.482 132.828C198.643 131.879 198.724 130.859 198.724 129.767V129.203C198.724 128.146 198.643 127.153 198.482 126.222C198.321 125.273 198.052 124.44 197.676 123.724C197.3 122.99 196.79 122.417 196.146 122.005C195.501 121.594 194.695 121.388 193.729 121.388C192.78 121.388 191.983 121.594 191.338 122.005C190.712 122.417 190.21 122.99 189.834 123.724C189.458 124.44 189.19 125.273 189.029 126.222C188.868 127.153 188.787 128.146 188.787 129.203ZM244.217 123.106V139.166C243.554 139.9 242.534 140.688 241.155 141.529C239.795 142.353 238.076 143.06 235.999 143.651C233.922 144.242 231.478 144.537 228.667 144.537C226.071 144.537 223.717 144.125 221.604 143.302C219.492 142.46 217.675 141.234 216.153 139.623C214.649 137.993 213.485 136.006 212.662 133.661C211.856 131.297 211.453 128.594 211.453 125.55V123.375C211.453 120.331 211.865 117.628 212.688 115.265C213.512 112.901 214.667 110.914 216.153 109.303C217.657 107.674 219.42 106.438 221.443 105.597C223.484 104.755 225.722 104.334 228.157 104.334C231.756 104.334 234.683 104.907 236.939 106.053C239.195 107.181 240.905 108.748 242.068 110.753C243.232 112.74 243.939 115.041 244.19 117.655H235.14C234.961 116.366 234.62 115.274 234.119 114.378C233.636 113.465 232.938 112.776 232.024 112.311C231.111 111.827 229.93 111.585 228.479 111.585C227.352 111.585 226.322 111.827 225.391 112.311C224.478 112.794 223.699 113.528 223.055 114.513C222.41 115.479 221.909 116.697 221.551 118.165C221.211 119.633 221.041 121.352 221.041 123.321V125.55C221.041 127.502 221.202 129.212 221.524 130.68C221.864 132.148 222.365 133.374 223.028 134.359C223.708 135.326 224.568 136.06 225.606 136.561C226.662 137.044 227.907 137.286 229.339 137.286C230.341 137.286 231.201 137.206 231.917 137.044C232.633 136.865 233.224 136.651 233.689 136.4C234.173 136.131 234.54 135.881 234.791 135.648V129.579H228.238V123.106H244.217ZM248.165 129.767V129.203C248.165 127.072 248.469 125.112 249.078 123.321C249.686 121.513 250.582 119.946 251.763 118.622C252.945 117.297 254.404 116.267 256.141 115.533C257.877 114.781 259.882 114.405 262.156 114.405C264.448 114.405 266.462 114.781 268.199 115.533C269.953 116.267 271.421 117.297 272.603 118.622C273.785 119.946 274.68 121.513 275.289 123.321C275.897 125.112 276.202 127.072 276.202 129.203V129.767C276.202 131.879 275.897 133.84 275.289 135.648C274.68 137.438 273.785 139.005 272.603 140.348C271.421 141.673 269.962 142.702 268.226 143.436C266.489 144.17 264.484 144.537 262.21 144.537C259.936 144.537 257.922 144.17 256.167 143.436C254.413 142.702 252.945 141.673 251.763 140.348C250.582 139.005 249.686 137.438 249.078 135.648C248.469 133.84 248.165 131.879 248.165 129.767ZM257.215 129.203V129.767C257.215 130.859 257.295 131.879 257.457 132.828C257.618 133.777 257.886 134.61 258.262 135.326C258.638 136.024 259.148 136.57 259.793 136.964C260.438 137.358 261.243 137.555 262.21 137.555C263.159 137.555 263.947 137.358 264.573 136.964C265.218 136.57 265.728 136.024 266.104 135.326C266.48 134.61 266.749 133.777 266.91 132.828C267.071 131.879 267.151 130.859 267.151 129.767V129.203C267.151 128.146 267.071 127.153 266.91 126.222C266.749 125.273 266.48 124.44 266.104 123.724C265.728 122.99 265.218 122.417 264.573 122.005C263.929 121.594 263.123 121.388 262.156 121.388C261.207 121.388 260.411 121.594 259.766 122.005C259.139 122.417 258.638 122.99 258.262 123.724C257.886 124.44 257.618 125.273 257.457 126.222C257.295 127.153 257.215 128.146 257.215 129.203Z" fill="black"/>
<path d="M96.563 55.1172H100.904L107.295 73.3862L113.687 55.1172H118.028L109.039 80H105.552L96.563 55.1172ZM94.2217 55.1172H98.5454L99.3315 72.9248V80H94.2217V55.1172ZM116.045 55.1172H120.386V80H115.259V72.9248L116.045 55.1172ZM134.554 75.8301V67.5928C134.554 67.0003 134.457 66.4933 134.263 66.0718C134.069 65.6388 133.768 65.3027 133.357 65.0635C132.959 64.8242 132.44 64.7046 131.802 64.7046C131.255 64.7046 130.783 64.8014 130.384 64.9951C129.985 65.1774 129.677 65.4451 129.461 65.7983C129.244 66.1401 129.136 66.5446 129.136 67.0117H124.214C124.214 66.2256 124.397 65.4793 124.761 64.7729C125.126 64.0666 125.656 63.4456 126.351 62.9102C127.046 62.3633 127.872 61.936 128.829 61.6284C129.797 61.3208 130.879 61.167 132.076 61.167C133.511 61.167 134.787 61.4062 135.904 61.8848C137.02 62.3633 137.898 63.0811 138.536 64.0381C139.185 64.9951 139.51 66.1914 139.51 67.627V75.5396C139.51 76.5535 139.572 77.3853 139.698 78.0347C139.823 78.6727 140.005 79.231 140.245 79.7095V80H135.271C135.032 79.4987 134.85 78.8721 134.725 78.1201C134.611 77.3568 134.554 76.5934 134.554 75.8301ZM135.203 68.7378L135.237 71.5234H132.486C131.836 71.5234 131.272 71.5975 130.794 71.7456C130.315 71.8937 129.922 72.1045 129.615 72.3779C129.307 72.64 129.079 72.9476 128.931 73.3008C128.794 73.654 128.726 74.0413 128.726 74.4629C128.726 74.8844 128.823 75.2661 129.017 75.6079C129.21 75.9383 129.489 76.2004 129.854 76.394C130.219 76.5763 130.646 76.6675 131.136 76.6675C131.876 76.6675 132.52 76.5194 133.067 76.2231C133.614 75.9269 134.035 75.5623 134.332 75.1294C134.639 74.6965 134.799 74.2863 134.81 73.8989L136.109 75.9839C135.927 76.451 135.676 76.9352 135.357 77.4365C135.049 77.9378 134.656 78.4106 134.178 78.855C133.699 79.2879 133.124 79.6468 132.452 79.9316C131.779 80.2051 130.982 80.3418 130.059 80.3418C128.886 80.3418 127.82 80.1082 126.863 79.6411C125.918 79.1626 125.166 78.5075 124.607 77.6758C124.061 76.8327 123.787 75.8757 123.787 74.8047C123.787 73.8363 123.969 72.9761 124.334 72.2241C124.699 71.4722 125.234 70.8398 125.94 70.3271C126.658 69.8031 127.553 69.41 128.624 69.1479C129.694 68.8745 130.936 68.7378 132.349 68.7378H135.203ZM148.226 65.542V80H143.304V61.5088H147.935L148.226 65.542ZM153.797 61.3892L153.711 65.9521C153.472 65.918 153.182 65.8895 152.84 65.8667C152.509 65.8325 152.208 65.8154 151.934 65.8154C151.239 65.8154 150.635 65.9066 150.123 66.0889C149.621 66.2598 149.2 66.5161 148.858 66.8579C148.528 67.1997 148.277 67.6156 148.106 68.1055C147.946 68.5954 147.855 69.1536 147.833 69.7803L146.841 69.4727C146.841 68.2764 146.961 67.1769 147.2 66.1743C147.439 65.1603 147.787 64.2773 148.243 63.5254C148.71 62.7734 149.279 62.1924 149.952 61.7822C150.624 61.3721 151.393 61.167 152.259 61.167C152.532 61.167 152.811 61.1898 153.096 61.2354C153.381 61.2695 153.615 61.3208 153.797 61.3892ZM161.316 53.75V80H156.377V53.75H161.316ZM170.87 77.915L175.774 61.5088H181.055L173.621 82.7856C173.462 83.2528 173.245 83.7541 172.972 84.2896C172.71 84.825 172.351 85.332 171.895 85.8105C171.451 86.3005 170.887 86.6992 170.203 87.0068C169.531 87.3145 168.705 87.4683 167.725 87.4683C167.258 87.4683 166.876 87.4398 166.58 87.3828C166.284 87.3258 165.931 87.2461 165.521 87.1436V83.5376C165.646 83.5376 165.777 83.5376 165.914 83.5376C166.05 83.549 166.181 83.5547 166.307 83.5547C166.956 83.5547 167.486 83.4806 167.896 83.3325C168.306 83.1844 168.637 82.9565 168.887 82.6489C169.138 82.3527 169.337 81.9653 169.485 81.4868L170.87 77.915ZM168.819 61.5088L172.835 74.9072L173.536 80.1196L170.186 80.4785L163.538 61.5088H168.819ZM197.171 55.1172V80H192.044V55.1172H197.171ZM212.073 55.1172L202.212 67.4048L196.521 73.5229L195.599 68.6694L199.444 63.4058L205.784 55.1172H212.073ZM206.246 80L198.914 68.4985L202.708 65.3198L212.312 80H206.246ZM218.79 53.75V80H213.868V53.75H218.79ZM218.089 70.105H216.739C216.75 68.8175 216.921 67.6326 217.251 66.5503C217.582 65.4565 218.055 64.5109 218.67 63.7134C219.285 62.9045 220.02 62.2778 220.875 61.8335C221.74 61.3892 222.697 61.167 223.746 61.167C224.657 61.167 225.483 61.298 226.224 61.5601C226.976 61.8107 227.619 62.2209 228.155 62.7905C228.702 63.3488 229.123 64.0837 229.419 64.9951C229.716 65.9066 229.864 67.0117 229.864 68.3105V80H224.908V68.2764C224.908 67.4561 224.788 66.8123 224.549 66.3452C224.321 65.8667 223.985 65.5306 223.541 65.3369C223.108 65.1318 222.572 65.0293 221.934 65.0293C221.228 65.0293 220.624 65.1603 220.123 65.4224C219.633 65.6844 219.24 66.049 218.943 66.5161C218.647 66.9718 218.431 67.5073 218.294 68.1226C218.157 68.7378 218.089 69.3986 218.089 70.105ZM232.82 70.9424V70.5835C232.82 69.2277 233.014 67.9801 233.401 66.8408C233.789 65.6901 234.353 64.6932 235.093 63.8501C235.834 63.007 236.745 62.3519 237.828 61.8848C238.91 61.4062 240.152 61.167 241.553 61.167C242.955 61.167 244.202 61.4062 245.296 61.8848C246.39 62.3519 247.307 63.007 248.047 63.8501C248.799 64.6932 249.369 65.6901 249.756 66.8408C250.144 67.9801 250.337 69.2277 250.337 70.5835V70.9424C250.337 72.2868 250.144 73.5343 249.756 74.6851C249.369 75.8244 248.799 76.8213 248.047 77.6758C247.307 78.5189 246.395 79.174 245.313 79.6411C244.231 80.1082 242.989 80.3418 241.587 80.3418C240.186 80.3418 238.938 80.1082 237.845 79.6411C236.762 79.174 235.845 78.5189 235.093 77.6758C234.353 76.8213 233.789 75.8244 233.401 74.6851C233.014 73.5343 232.82 72.2868 232.82 70.9424ZM237.742 70.5835V70.9424C237.742 71.7171 237.811 72.4406 237.947 73.1128C238.084 73.785 238.3 74.3774 238.597 74.8901C238.904 75.3914 239.303 75.7845 239.793 76.0693C240.283 76.3542 240.881 76.4966 241.587 76.4966C242.271 76.4966 242.858 76.3542 243.348 76.0693C243.838 75.7845 244.231 75.3914 244.527 74.8901C244.823 74.3774 245.04 73.785 245.176 73.1128C245.324 72.4406 245.398 71.7171 245.398 70.9424V70.5835C245.398 69.8315 245.324 69.1252 245.176 68.4644C245.04 67.7922 244.817 67.1997 244.51 66.687C244.214 66.1629 243.82 65.7528 243.331 65.4565C242.841 65.1603 242.248 65.0122 241.553 65.0122C240.858 65.0122 240.266 65.1603 239.776 65.4565C239.297 65.7528 238.904 66.1629 238.597 66.687C238.3 67.1997 238.084 67.7922 237.947 68.4644C237.811 69.1252 237.742 69.8315 237.742 70.5835ZM264.3 75.5737V61.5088H269.222V80H264.59L264.3 75.5737ZM264.847 71.7798L266.299 71.7456C266.299 72.9761 266.157 74.1211 265.872 75.1807C265.587 76.2288 265.16 77.1403 264.59 77.915C264.021 78.6784 263.303 79.2765 262.437 79.7095C261.571 80.131 260.551 80.3418 259.378 80.3418C258.478 80.3418 257.646 80.2165 256.883 79.9658C256.131 79.7038 255.481 79.2993 254.935 78.7524C254.399 78.1942 253.978 77.4821 253.67 76.6162C253.374 75.7389 253.226 74.6851 253.226 73.4546V61.5088H258.147V73.4888C258.147 74.0356 258.21 74.4971 258.335 74.873C258.472 75.249 258.66 75.5566 258.899 75.7959C259.139 76.0352 259.418 76.2061 259.737 76.3086C260.067 76.4111 260.432 76.4624 260.831 76.4624C261.845 76.4624 262.642 76.2573 263.223 75.8472C263.816 75.437 264.231 74.8787 264.471 74.1724C264.721 73.4546 264.847 72.6571 264.847 71.7798ZM277.903 65.542V80H272.981V61.5088H277.613L277.903 65.542ZM283.475 61.3892L283.389 65.9521C283.15 65.918 282.859 65.8895 282.518 65.8667C282.187 65.8325 281.885 65.8154 281.612 65.8154C280.917 65.8154 280.313 65.9066 279.8 66.0889C279.299 66.2598 278.877 66.5161 278.536 66.8579C278.205 67.1997 277.955 67.6156 277.784 68.1055C277.624 68.5954 277.533 69.1536 277.51 69.7803L276.519 69.4727C276.519 68.2764 276.639 67.1769 276.878 66.1743C277.117 65.1603 277.465 64.2773 277.92 63.5254C278.388 62.7734 278.957 62.1924 279.629 61.7822C280.302 61.3721 281.071 61.167 281.937 61.167C282.21 61.167 282.489 61.1898 282.774 61.2354C283.059 61.2695 283.292 61.3208 283.475 61.3892ZM291.592 77.915L296.497 61.5088H301.778L294.344 82.7856C294.184 83.2528 293.968 83.7541 293.694 84.2896C293.432 84.825 293.073 85.332 292.618 85.8105C292.173 86.3005 291.609 86.6992 290.926 87.0068C290.254 87.3145 289.428 87.4683 288.448 87.4683C287.981 87.4683 287.599 87.4398 287.303 87.3828C287.007 87.3258 286.653 87.2461 286.243 87.1436V83.5376C286.368 83.5376 286.5 83.5376 286.636 83.5376C286.773 83.549 286.904 83.5547 287.029 83.5547C287.679 83.5547 288.208 83.4806 288.619 83.3325C289.029 83.1844 289.359 82.9565 289.61 82.6489C289.861 82.3527 290.06 81.9653 290.208 81.4868L291.592 77.915ZM289.542 61.5088L293.558 74.9072L294.258 80.1196L290.909 80.4785L284.261 61.5088H289.542Z" fill="#888888"/>
<rect x="92" y="181" width="1179" height="80" rx="13.3333" fill="#CCCCCC"/>
<rect x="107" y="196.333" width="208" height="49.3333" rx="4.66667" fill="#888888" stroke="#888888" stroke-width="4"/>
<path d="M150.833 213.167H156.802C157.969 213.167 158.983 213.34 159.844 213.687C160.705 214.035 161.368 214.549 161.833 215.229C162.306 215.91 162.542 216.75 162.542 217.75C162.542 218.618 162.406 219.344 162.135 219.927C161.865 220.51 161.486 220.993 161 221.375C160.521 221.75 159.962 222.059 159.323 222.302L158.125 222.979H153.115L153.094 220.156H156.802C157.267 220.156 157.653 220.073 157.958 219.906C158.264 219.74 158.493 219.503 158.646 219.198C158.806 218.885 158.885 218.514 158.885 218.083C158.885 217.646 158.806 217.271 158.646 216.958C158.486 216.646 158.25 216.406 157.937 216.24C157.632 216.073 157.253 215.99 156.802 215.99H154.49V228.333H150.833V213.167ZM159.135 228.333L155.781 221.625L159.656 221.604L163.052 228.177V228.333H159.135ZM170.042 228.542C169.125 228.542 168.306 228.399 167.583 228.115C166.861 227.823 166.25 227.424 165.75 226.917C165.257 226.41 164.878 225.826 164.615 225.167C164.358 224.507 164.229 223.809 164.229 223.073V222.677C164.229 221.851 164.344 221.087 164.573 220.385C164.802 219.677 165.142 219.059 165.594 218.531C166.045 218.003 166.611 217.594 167.292 217.302C167.972 217.003 168.764 216.854 169.667 216.854C170.465 216.854 171.181 216.983 171.813 217.24C172.444 217.497 172.979 217.865 173.417 218.344C173.861 218.823 174.198 219.403 174.427 220.083C174.663 220.764 174.781 221.528 174.781 222.375V223.802H165.573V221.604H171.354V221.333C171.361 220.958 171.295 220.639 171.156 220.375C171.024 220.111 170.83 219.91 170.573 219.771C170.316 219.632 170.003 219.562 169.635 219.562C169.253 219.562 168.938 219.646 168.688 219.812C168.444 219.979 168.253 220.208 168.115 220.5C167.983 220.785 167.889 221.115 167.833 221.49C167.778 221.865 167.75 222.26 167.75 222.677V223.073C167.75 223.49 167.806 223.868 167.917 224.208C168.035 224.549 168.201 224.84 168.417 225.083C168.639 225.319 168.903 225.503 169.208 225.635C169.521 225.767 169.875 225.833 170.271 225.833C170.75 225.833 171.222 225.743 171.688 225.562C172.153 225.382 172.552 225.083 172.885 224.667L174.479 226.562C174.25 226.889 173.924 227.205 173.5 227.51C173.083 227.816 172.583 228.066 172 228.26C171.417 228.448 170.764 228.542 170.042 228.542ZM182.063 225.5V220.854C182.063 220.535 182.017 220.26 181.927 220.031C181.837 219.802 181.694 219.625 181.5 219.5C181.306 219.368 181.045 219.302 180.719 219.302C180.455 219.302 180.229 219.347 180.042 219.437C179.854 219.528 179.712 219.663 179.615 219.844C179.517 220.024 179.469 220.253 179.469 220.531H175.958C175.958 220.01 176.073 219.528 176.302 219.083C176.538 218.632 176.872 218.24 177.302 217.906C177.74 217.573 178.26 217.316 178.865 217.135C179.476 216.948 180.156 216.854 180.906 216.854C181.802 216.854 182.601 217.003 183.302 217.302C184.01 217.601 184.569 218.049 184.979 218.646C185.389 219.236 185.594 219.979 185.594 220.875V225.49C185.594 226.226 185.635 226.785 185.719 227.167C185.802 227.542 185.92 227.872 186.073 228.156V228.333H182.552C182.385 227.986 182.26 227.562 182.177 227.062C182.101 226.556 182.063 226.035 182.063 225.5ZM182.49 221.448L182.51 223.323H180.958C180.632 223.323 180.354 223.368 180.125 223.458C179.903 223.549 179.722 223.674 179.583 223.833C179.451 223.986 179.354 224.16 179.292 224.354C179.236 224.549 179.208 224.753 179.208 224.969C179.208 225.177 179.257 225.365 179.354 225.531C179.458 225.691 179.597 225.816 179.771 225.906C179.944 225.997 180.139 226.042 180.354 226.042C180.743 226.042 181.073 225.969 181.344 225.823C181.622 225.67 181.833 225.486 181.979 225.271C182.125 225.056 182.198 224.854 182.198 224.667L182.969 226.104C182.83 226.382 182.67 226.663 182.49 226.948C182.316 227.233 182.097 227.497 181.833 227.74C181.576 227.976 181.26 228.17 180.885 228.323C180.51 228.469 180.056 228.542 179.521 228.542C178.826 228.542 178.188 228.399 177.604 228.115C177.028 227.83 176.566 227.434 176.219 226.927C175.872 226.413 175.698 225.823 175.698 225.156C175.698 224.573 175.802 224.052 176.01 223.594C176.226 223.135 176.549 222.747 176.979 222.427C177.41 222.108 177.958 221.865 178.625 221.698C179.292 221.531 180.076 221.448 180.979 221.448H182.49ZM192.302 225.833C192.628 225.833 192.906 225.774 193.135 225.656C193.372 225.531 193.549 225.358 193.667 225.135C193.792 224.906 193.851 224.632 193.844 224.312H197.146C197.153 225.16 196.944 225.903 196.521 226.542C196.104 227.174 195.535 227.667 194.812 228.021C194.097 228.368 193.288 228.542 192.385 228.542C191.503 228.542 190.733 228.399 190.073 228.115C189.413 227.823 188.861 227.42 188.417 226.906C187.979 226.385 187.649 225.778 187.427 225.083C187.212 224.389 187.104 223.635 187.104 222.823V222.583C187.104 221.771 187.212 221.017 187.427 220.323C187.649 219.622 187.979 219.014 188.417 218.5C188.861 217.979 189.41 217.576 190.062 217.292C190.722 217 191.49 216.854 192.365 216.854C193.302 216.854 194.128 217.031 194.844 217.385C195.566 217.74 196.132 218.253 196.542 218.927C196.951 219.601 197.153 220.417 197.146 221.375H193.844C193.851 221.035 193.799 220.729 193.687 220.458C193.576 220.187 193.403 219.972 193.167 219.812C192.937 219.646 192.642 219.562 192.281 219.562C191.92 219.562 191.628 219.642 191.406 219.802C191.184 219.962 191.014 220.184 190.896 220.469C190.785 220.747 190.708 221.066 190.667 221.427C190.632 221.788 190.615 222.174 190.615 222.583V222.823C190.615 223.24 190.632 223.632 190.667 224C190.708 224.361 190.788 224.681 190.906 224.958C191.024 225.229 191.194 225.444 191.417 225.604C191.639 225.757 191.934 225.833 192.302 225.833ZM204.583 217.062V219.5H197.792V217.062H204.583ZM199.219 214.26H202.729V224.656C202.729 224.955 202.764 225.187 202.833 225.354C202.903 225.514 203.021 225.628 203.188 225.698C203.361 225.76 203.59 225.792 203.875 225.792C204.076 225.792 204.243 225.788 204.375 225.781C204.507 225.767 204.632 225.75 204.75 225.729V228.24C204.451 228.337 204.139 228.41 203.813 228.458C203.486 228.514 203.139 228.542 202.771 228.542C202.021 228.542 201.378 228.424 200.844 228.187C200.316 227.951 199.913 227.58 199.635 227.073C199.358 226.566 199.219 225.906 199.219 225.094V214.26ZM224.125 213.167V228.333H220.479L215.115 218.896V228.333H211.458V213.167H215.115L220.479 222.604V213.167H224.125ZM232.125 225.5V220.854C232.125 220.535 232.08 220.26 231.99 220.031C231.899 219.802 231.757 219.625 231.563 219.5C231.368 219.368 231.108 219.302 230.781 219.302C230.517 219.302 230.292 219.347 230.104 219.437C229.917 219.528 229.774 219.663 229.677 219.844C229.58 220.024 229.531 220.253 229.531 220.531H226.021C226.021 220.01 226.135 219.528 226.365 219.083C226.601 218.632 226.934 218.24 227.365 217.906C227.802 217.573 228.323 217.316 228.927 217.135C229.538 216.948 230.219 216.854 230.969 216.854C231.865 216.854 232.663 217.003 233.365 217.302C234.073 217.601 234.632 218.049 235.042 218.646C235.451 219.236 235.656 219.979 235.656 220.875V225.49C235.656 226.226 235.698 226.785 235.781 227.167C235.865 227.542 235.983 227.872 236.135 228.156V228.333H232.615C232.448 227.986 232.323 227.562 232.24 227.062C232.163 226.556 232.125 226.035 232.125 225.5ZM232.552 221.448L232.573 223.323H231.021C230.694 223.323 230.417 223.368 230.188 223.458C229.965 223.549 229.785 223.674 229.646 223.833C229.514 223.986 229.417 224.16 229.354 224.354C229.299 224.549 229.271 224.753 229.271 224.969C229.271 225.177 229.319 225.365 229.417 225.531C229.521 225.691 229.66 225.816 229.833 225.906C230.007 225.997 230.201 226.042 230.417 226.042C230.806 226.042 231.135 225.969 231.406 225.823C231.684 225.67 231.896 225.486 232.042 225.271C232.188 225.056 232.26 224.854 232.26 224.667L233.031 226.104C232.892 226.382 232.733 226.663 232.552 226.948C232.378 227.233 232.16 227.497 231.896 227.74C231.639 227.976 231.323 228.17 230.948 228.323C230.573 228.469 230.118 228.542 229.583 228.542C228.889 228.542 228.25 228.399 227.667 228.115C227.09 227.83 226.628 227.434 226.281 226.927C225.934 226.413 225.76 225.823 225.76 225.156C225.76 224.573 225.865 224.052 226.073 223.594C226.288 223.135 226.611 222.747 227.042 222.427C227.472 222.108 228.021 221.865 228.688 221.698C229.354 221.531 230.139 221.448 231.042 221.448H232.552ZM243.542 217.062V219.5H236.75V217.062H243.542ZM238.177 214.26H241.687V224.656C241.687 224.955 241.722 225.187 241.792 225.354C241.861 225.514 241.979 225.628 242.146 225.698C242.319 225.76 242.549 225.792 242.833 225.792C243.035 225.792 243.201 225.788 243.333 225.781C243.465 225.767 243.59 225.75 243.708 225.729V228.24C243.41 228.337 243.097 228.41 242.771 228.458C242.444 228.514 242.097 228.542 241.729 228.542C240.979 228.542 240.337 228.424 239.802 228.187C239.274 227.951 238.872 227.58 238.594 227.073C238.316 226.566 238.177 225.906 238.177 225.094V214.26ZM248.646 217.062V228.333H245.125V217.062H248.646ZM244.917 214.156C244.917 213.656 245.097 213.247 245.458 212.927C245.819 212.608 246.288 212.448 246.865 212.448C247.441 212.448 247.91 212.608 248.271 212.927C248.632 213.247 248.813 213.656 248.813 214.156C248.813 214.656 248.632 215.066 248.271 215.385C247.91 215.705 247.441 215.865 246.865 215.865C246.288 215.865 245.819 215.705 245.458 215.385C245.097 215.066 244.917 214.656 244.917 214.156ZM254.875 225.927L257.094 217.062H260.792L257.104 228.333H254.917L254.875 225.927ZM253.563 217.062L255.75 225.927L255.729 228.333H253.531L249.854 217.062H253.563ZM267.146 228.542C266.229 228.542 265.41 228.399 264.688 228.115C263.965 227.823 263.354 227.424 262.854 226.917C262.361 226.41 261.983 225.826 261.719 225.167C261.462 224.507 261.333 223.809 261.333 223.073V222.677C261.333 221.851 261.448 221.087 261.677 220.385C261.906 219.677 262.247 219.059 262.698 218.531C263.149 218.003 263.715 217.594 264.396 217.302C265.076 217.003 265.868 216.854 266.771 216.854C267.569 216.854 268.285 216.983 268.917 217.24C269.549 217.497 270.083 217.865 270.521 218.344C270.965 218.823 271.302 219.403 271.531 220.083C271.767 220.764 271.885 221.528 271.885 222.375V223.802H262.677V221.604H268.458V221.333C268.465 220.958 268.399 220.639 268.26 220.375C268.128 220.111 267.934 219.91 267.677 219.771C267.42 219.632 267.108 219.562 266.74 219.562C266.358 219.562 266.042 219.646 265.792 219.812C265.549 219.979 265.358 220.208 265.219 220.5C265.087 220.785 264.993 221.115 264.938 221.49C264.882 221.865 264.854 222.26 264.854 222.677V223.073C264.854 223.49 264.91 223.868 265.021 224.208C265.139 224.549 265.306 224.84 265.521 225.083C265.743 225.319 266.007 225.503 266.313 225.635C266.625 225.767 266.979 225.833 267.375 225.833C267.854 225.833 268.326 225.743 268.792 225.562C269.257 225.382 269.656 225.083 269.99 224.667L271.583 226.562C271.354 226.889 271.028 227.205 270.604 227.51C270.188 227.816 269.688 228.066 269.104 228.26C268.521 228.448 267.868 228.542 267.146 228.542Z" fill="white"/>
<rect x="339" y="196.333" width="208" height="49.3333" rx="4.66667" fill="#888888" stroke="#888888" stroke-width="4"/>
<path d="M419.073 225.521V228.333H411.406V225.521H419.073ZM412.708 213.167V228.333H409.052V213.167H412.708ZM426.302 225.5V220.854C426.302 220.535 426.257 220.26 426.167 220.031C426.076 219.802 425.934 219.625 425.74 219.5C425.545 219.368 425.285 219.302 424.958 219.302C424.694 219.302 424.469 219.347 424.281 219.437C424.094 219.528 423.951 219.663 423.854 219.844C423.757 220.024 423.708 220.253 423.708 220.531H420.198C420.198 220.01 420.312 219.528 420.542 219.083C420.778 218.632 421.111 218.24 421.542 217.906C421.979 217.573 422.5 217.316 423.104 217.135C423.715 216.948 424.396 216.854 425.146 216.854C426.042 216.854 426.84 217.003 427.542 217.302C428.25 217.601 428.809 218.049 429.219 218.646C429.628 219.236 429.833 219.979 429.833 220.875V225.49C429.833 226.226 429.875 226.785 429.958 227.167C430.042 227.542 430.16 227.872 430.312 228.156V228.333H426.792C426.625 227.986 426.5 227.562 426.417 227.062C426.34 226.556 426.302 226.035 426.302 225.5ZM426.729 221.448L426.75 223.323H425.198C424.872 223.323 424.594 223.368 424.365 223.458C424.142 223.549 423.962 223.674 423.823 223.833C423.691 223.986 423.594 224.16 423.531 224.354C423.476 224.549 423.448 224.753 423.448 224.969C423.448 225.177 423.497 225.365 423.594 225.531C423.698 225.691 423.837 225.816 424.01 225.906C424.184 225.997 424.378 226.042 424.594 226.042C424.983 226.042 425.312 225.969 425.583 225.823C425.861 225.67 426.073 225.486 426.219 225.271C426.365 225.056 426.437 224.854 426.437 224.667L427.208 226.104C427.069 226.382 426.91 226.663 426.729 226.948C426.556 227.233 426.337 227.497 426.073 227.74C425.816 227.976 425.5 228.17 425.125 228.323C424.75 228.469 424.295 228.542 423.76 228.542C423.066 228.542 422.427 228.399 421.844 228.115C421.267 227.83 420.806 227.434 420.458 226.927C420.111 226.413 419.937 225.823 419.937 225.156C419.937 224.573 420.042 224.052 420.25 223.594C420.465 223.135 420.788 222.747 421.219 222.427C421.649 222.108 422.198 221.865 422.865 221.698C423.531 221.531 424.316 221.448 425.219 221.448H426.729ZM435.323 219.854V228.333H431.812V217.062H435.094L435.323 219.854ZM438.656 216.979L438.594 220.24C438.455 220.226 438.267 220.208 438.031 220.187C437.795 220.167 437.597 220.156 437.437 220.156C437.028 220.156 436.674 220.205 436.375 220.302C436.083 220.392 435.84 220.531 435.646 220.719C435.458 220.899 435.319 221.128 435.229 221.406C435.146 221.684 435.108 222.007 435.115 222.375L434.479 221.958C434.479 221.201 434.552 220.514 434.698 219.896C434.851 219.271 435.066 218.733 435.344 218.281C435.622 217.823 435.958 217.472 436.354 217.229C436.75 216.979 437.194 216.854 437.687 216.854C437.861 216.854 438.031 216.865 438.198 216.885C438.372 216.906 438.524 216.937 438.656 216.979ZM445.406 225.5V220.854C445.406 220.535 445.361 220.26 445.271 220.031C445.181 219.802 445.038 219.625 444.844 219.5C444.649 219.368 444.389 219.302 444.063 219.302C443.799 219.302 443.573 219.347 443.385 219.437C443.198 219.528 443.056 219.663 442.958 219.844C442.861 220.024 442.813 220.253 442.813 220.531H439.302C439.302 220.01 439.417 219.528 439.646 219.083C439.882 218.632 440.215 218.24 440.646 217.906C441.083 217.573 441.604 217.316 442.208 217.135C442.819 216.948 443.5 216.854 444.25 216.854C445.146 216.854 445.944 217.003 446.646 217.302C447.354 217.601 447.913 218.049 448.323 218.646C448.733 219.236 448.938 219.979 448.938 220.875V225.49C448.938 226.226 448.979 226.785 449.063 227.167C449.146 227.542 449.264 227.872 449.417 228.156V228.333H445.896C445.729 227.986 445.604 227.562 445.521 227.062C445.444 226.556 445.406 226.035 445.406 225.5ZM445.833 221.448L445.854 223.323H444.302C443.976 223.323 443.698 223.368 443.469 223.458C443.247 223.549 443.066 223.674 442.927 223.833C442.795 223.986 442.698 224.16 442.635 224.354C442.58 224.549 442.552 224.753 442.552 224.969C442.552 225.177 442.601 225.365 442.698 225.531C442.802 225.691 442.941 225.816 443.115 225.906C443.288 225.997 443.483 226.042 443.698 226.042C444.087 226.042 444.417 225.969 444.688 225.823C444.965 225.67 445.177 225.486 445.323 225.271C445.469 225.056 445.542 224.854 445.542 224.667L446.313 226.104C446.174 226.382 446.014 226.663 445.833 226.948C445.66 227.233 445.441 227.497 445.177 227.74C444.92 227.976 444.604 228.17 444.229 228.323C443.854 228.469 443.399 228.542 442.865 228.542C442.17 228.542 441.531 228.399 440.948 228.115C440.372 227.83 439.91 227.434 439.563 226.927C439.215 226.413 439.042 225.823 439.042 225.156C439.042 224.573 439.146 224.052 439.354 223.594C439.569 223.135 439.892 222.747 440.323 222.427C440.753 222.108 441.302 221.865 441.969 221.698C442.635 221.531 443.42 221.448 444.323 221.448H445.833ZM454.781 225.927L457 217.062H460.698L457.01 228.333H454.823L454.781 225.927ZM453.469 217.062L455.656 225.927L455.635 228.333H453.437L449.76 217.062H453.469ZM467.052 228.542C466.135 228.542 465.316 228.399 464.594 228.115C463.872 227.823 463.26 227.424 462.76 226.917C462.267 226.41 461.889 225.826 461.625 225.167C461.368 224.507 461.24 223.809 461.24 223.073V222.677C461.24 221.851 461.354 221.087 461.583 220.385C461.812 219.677 462.153 219.059 462.604 218.531C463.056 218.003 463.622 217.594 464.302 217.302C464.983 217.003 465.774 216.854 466.677 216.854C467.476 216.854 468.191 216.983 468.823 217.24C469.455 217.497 469.99 217.865 470.427 218.344C470.872 218.823 471.208 219.403 471.437 220.083C471.674 220.764 471.792 221.528 471.792 222.375V223.802H462.583V221.604H468.365V221.333C468.372 220.958 468.306 220.639 468.167 220.375C468.035 220.111 467.84 219.91 467.583 219.771C467.326 219.632 467.014 219.562 466.646 219.562C466.264 219.562 465.948 219.646 465.698 219.812C465.455 219.979 465.264 220.208 465.125 220.5C464.993 220.785 464.899 221.115 464.844 221.49C464.788 221.865 464.76 222.26 464.76 222.677V223.073C464.76 223.49 464.816 223.868 464.927 224.208C465.045 224.549 465.212 224.84 465.427 225.083C465.649 225.319 465.913 225.503 466.219 225.635C466.531 225.767 466.885 225.833 467.281 225.833C467.76 225.833 468.233 225.743 468.698 225.562C469.163 225.382 469.562 225.083 469.896 224.667L471.49 226.562C471.26 226.889 470.934 227.205 470.51 227.51C470.094 227.816 469.594 228.066 469.01 228.26C468.427 228.448 467.774 228.542 467.052 228.542ZM476.927 212.333V228.333H473.406V212.333H476.927Z" fill="white"/>
<rect x="571" y="196.333" width="208" height="49.3333" rx="4.66667" fill="#888888" stroke="#888888" stroke-width="4"/>
<path d="M643.26 213.167H646.24L649.625 223.719L653.01 213.167H655.99L650.833 228.333H648.417L643.26 213.167ZM641.448 213.167H644.531L645.104 224.792V228.333H641.448V213.167ZM654.719 213.167H657.812V228.333H654.146V224.792L654.719 213.167ZM663.448 227.01L666.365 217.062H670.135L665.604 230.01C665.507 230.295 665.378 230.601 665.219 230.927C665.059 231.26 664.84 231.576 664.563 231.875C664.285 232.174 663.927 232.417 663.49 232.604C663.059 232.792 662.524 232.885 661.885 232.885C661.545 232.885 661.295 232.868 661.135 232.833C660.983 232.806 660.747 232.753 660.427 232.677V230.167C660.517 230.167 660.594 230.167 660.656 230.167C660.726 230.167 660.802 230.167 660.885 230.167C661.26 230.167 661.559 230.128 661.781 230.052C662.01 229.976 662.184 229.865 662.302 229.719C662.427 229.573 662.524 229.396 662.594 229.187L663.448 227.01ZM662.708 217.062L664.927 224.948L665.313 228.667H662.958L658.948 217.062H662.708ZM679.031 224.302C679.031 224.066 678.997 223.854 678.927 223.667C678.858 223.472 678.729 223.292 678.542 223.125C678.354 222.958 678.083 222.792 677.729 222.625C677.382 222.451 676.924 222.271 676.354 222.083C675.688 221.861 675.045 221.611 674.427 221.333C673.809 221.049 673.257 220.719 672.771 220.344C672.285 219.962 671.899 219.517 671.615 219.01C671.33 218.497 671.188 217.899 671.188 217.219C671.188 216.566 671.333 215.979 671.625 215.458C671.917 214.931 672.323 214.483 672.844 214.115C673.372 213.74 673.99 213.455 674.698 213.26C675.406 213.059 676.181 212.958 677.021 212.958C678.132 212.958 679.111 213.153 679.958 213.542C680.813 213.924 681.479 214.469 681.958 215.177C682.444 215.878 682.688 216.708 682.688 217.667H679.052C679.052 217.285 678.972 216.948 678.813 216.656C678.66 216.365 678.427 216.135 678.115 215.969C677.802 215.802 677.41 215.719 676.938 215.719C676.479 215.719 676.094 215.788 675.781 215.927C675.469 216.066 675.233 216.253 675.073 216.49C674.913 216.719 674.833 216.972 674.833 217.25C674.833 217.479 674.896 217.687 675.021 217.875C675.153 218.056 675.337 218.226 675.573 218.385C675.816 218.545 676.108 218.698 676.448 218.844C676.795 218.99 677.184 219.132 677.615 219.271C678.42 219.528 679.135 219.816 679.76 220.135C680.392 220.448 680.924 220.806 681.354 221.208C681.792 221.604 682.122 222.056 682.344 222.562C682.573 223.069 682.688 223.642 682.688 224.281C682.688 224.962 682.556 225.566 682.292 226.094C682.028 226.622 681.649 227.069 681.156 227.437C680.663 227.799 680.073 228.073 679.385 228.26C678.698 228.448 677.931 228.542 677.083 228.542C676.306 228.542 675.538 228.444 674.781 228.25C674.031 228.049 673.351 227.743 672.74 227.333C672.128 226.917 671.639 226.385 671.271 225.74C670.91 225.087 670.729 224.312 670.729 223.417H674.396C674.396 223.861 674.455 224.236 674.573 224.542C674.691 224.847 674.865 225.094 675.094 225.281C675.323 225.462 675.604 225.594 675.938 225.677C676.271 225.753 676.653 225.792 677.083 225.792C677.549 225.792 677.924 225.726 678.208 225.594C678.493 225.455 678.701 225.274 678.833 225.052C678.965 224.823 679.031 224.573 679.031 224.302ZM693.031 225.833L697.26 229.187L694.99 231.104L690.833 227.75L693.031 225.833ZM697.437 220.448V221.062C697.437 222.222 697.274 223.264 696.948 224.187C696.628 225.104 696.17 225.889 695.573 226.542C694.983 227.187 694.285 227.684 693.479 228.031C692.674 228.372 691.785 228.542 690.812 228.542C689.833 228.542 688.937 228.372 688.125 228.031C687.319 227.684 686.618 227.187 686.021 226.542C685.431 225.889 684.972 225.104 684.646 224.187C684.326 223.264 684.167 222.222 684.167 221.062V220.448C684.167 219.288 684.326 218.247 684.646 217.323C684.972 216.399 685.427 215.615 686.01 214.969C686.601 214.316 687.299 213.819 688.104 213.479C688.917 213.132 689.812 212.958 690.792 212.958C691.764 212.958 692.653 213.132 693.458 213.479C694.271 213.819 694.972 214.316 695.562 214.969C696.16 215.615 696.622 216.399 696.948 217.323C697.274 218.247 697.437 219.288 697.437 220.448ZM693.719 221.062V220.427C693.719 219.677 693.653 219.017 693.521 218.448C693.396 217.872 693.208 217.389 692.958 217C692.708 216.611 692.399 216.319 692.031 216.125C691.67 215.924 691.257 215.823 690.792 215.823C690.306 215.823 689.882 215.924 689.521 216.125C689.16 216.319 688.858 216.611 688.615 217C688.372 217.389 688.187 217.872 688.062 218.448C687.944 219.017 687.885 219.677 687.885 220.427V221.062C687.885 221.806 687.944 222.465 688.062 223.042C688.187 223.611 688.372 224.094 688.615 224.49C688.865 224.885 689.17 225.184 689.531 225.385C689.899 225.587 690.326 225.687 690.812 225.687C691.278 225.687 691.691 225.587 692.052 225.385C692.413 225.184 692.715 224.885 692.958 224.49C693.208 224.094 693.396 223.611 693.521 223.042C693.653 222.465 693.719 221.806 693.719 221.062ZM709.323 225.521V228.333H701.656V225.521H709.323ZM702.958 213.167V228.333H699.302V213.167H702.958Z" fill="white"/>
</svg>
